<svg width="8" height="8" viewBox="0 0 8 8" fill="none" xmlns="http://www.w3.org/2000/svg">
<path fill-rule="evenodd" clip-rule="evenodd" d="M4 8C6.20914 8 8 6.20914 8 4C8 1.79086 6.20914 0 4 0C1.79086 0 0 1.79086 0 4C0 6.20914 1.79086 8 4 8ZM2.45908 4.76016L2.45908 4.76015L2.45912 4.76012L2.45932 4.75992L2.4602 4.75905L2.46386 4.75539L2.47856 4.74077L2.53521 4.68458C2.58426 4.63602 2.65471 4.56649 2.73991 4.483C2.91054 4.31579 3.13928 4.09362 3.37335 3.87212C3.59709 3.66038 3.8201 3.45458 4 3.29882C4.1799 3.45458 4.40291 3.66038 4.62665 3.87212C4.86072 4.09362 5.08946 4.31579 5.26009 4.483C5.34529 4.56649 5.41574 4.63602 5.46479 4.68458L5.52144 4.74077L5.53614 4.75539L5.5398 4.75905L5.54068 4.75992L5.54088 4.76012L5.54092 4.76015L5.54092 4.76016L6.00107 5.21924L6.91924 4.29893L6.45908 3.83985L6.00031 4.29969L6.45904 3.8398L6.45895 3.83972L6.45866 3.83942L6.45758 3.83834L6.4535 3.83428L6.43794 3.8188L6.3794 3.76073C6.32902 3.71086 6.25698 3.63976 6.16998 3.5545C5.99621 3.38421 5.76166 3.15638 5.5202 2.92788C5.28025 2.70081 5.02724 2.46716 4.81837 2.28794C4.71529 2.1995 4.61283 2.11555 4.523 2.0506C4.4792 2.01893 4.42538 1.98225 4.36797 1.95067C4.33927 1.93489 4.29847 1.91413 4.24957 1.89594C4.20866 1.88073 4.11748 1.85 4 1.85C3.88252 1.85 3.79134 1.88073 3.75043 1.89594C3.70153 1.91413 3.66073 1.93489 3.63203 1.95067C3.57462 1.98225 3.5208 2.01893 3.477 2.0506C3.38717 2.11555 3.28471 2.1995 3.18164 2.28794C2.97276 2.46716 2.71975 2.70081 2.4798 2.92788C2.23834 3.15638 2.00379 3.38421 1.83002 3.5545C1.74302 3.63976 1.67098 3.71086 1.6206 3.76073L1.56206 3.8188L1.5465 3.83428L1.54242 3.83834L1.54134 3.83942L1.54105 3.83972L1.54096 3.8398L2 4.3L1.54092 3.83985L1.08076 4.29893L1.99893 5.21924L2.45908 4.76016Z" fill="#B1FFC2"/>
</svg>
