<svg width="31" height="31" viewBox="0 0 31 31" fill="none" xmlns="http://www.w3.org/2000/svg">
<g clip-path="url(#clip0_9_566)">
<path d="M26.0328 26.0315C31.9879 20.0764 31.9879 10.4212 26.0328 4.46605C20.0776 -1.48909 10.4224 -1.48909 4.4673 4.46605C-1.48784 10.4212 -1.48784 20.0764 4.4673 26.0315C10.4224 31.9866 20.0776 31.9866 26.0328 26.0315Z" fill="#F7931A"/>
<path d="M21.6547 11.4326C21.0936 10.6254 20.1888 10.0846 18.67 9.65556L18.6466 9.64844L19.4477 6.77856L17.9045 6.34549L17.1034 9.22147C16.6408 9.09642 16.1305 8.95816 15.6273 8.82804L16.4406 5.93173L14.8963 5.49561L14.0739 8.39598C13.5229 8.26382 10.9224 7.48917 10.9224 7.48917L10.4223 9.1625L12.4026 9.76535L10.0319 18.2154L8.06881 17.6207L7.56763 19.3275C7.56763 19.3275 10.1549 20.1327 10.7374 20.3269L9.9109 23.2435L11.4541 23.6766L12.2623 20.8006C12.7706 20.9653 13.2881 21.1056 13.7323 21.2449L12.918 24.0995L14.4612 24.5326L15.2562 21.7206C16.9692 22.1568 18.2654 22.1385 19.221 21.6505C19.6287 21.4346 19.9874 21.1367 20.2743 20.7754C20.5613 20.4141 20.7703 19.9973 20.8882 19.5512C21.3874 17.7894 20.3423 16.4841 19.3033 15.8914L19.3145 15.8579C20.6818 15.746 21.7167 14.9541 22.04 13.8104C22.3064 12.8711 22.1376 12.0598 21.6547 11.4326ZM16.9346 18.2652C16.6429 19.295 15.5846 19.8125 14.139 19.4068L12.9038 19.0561L13.8716 15.623C14.2909 15.6611 14.7051 15.7422 15.1078 15.865C16.4843 16.2574 17.2894 17.0158 16.9346 18.2652ZM18.4372 13.3092C18.364 13.5875 18.2197 13.842 18.0185 14.0477C17.8173 14.2534 17.566 14.4032 17.2894 14.4824C16.8381 14.6298 16.2789 14.6308 15.6476 14.4519H15.6374L14.4084 14.1042L15.3792 10.6711C15.7975 10.7106 16.2107 10.7927 16.6124 10.9161C16.6185 10.9161 16.6225 10.9161 16.6286 10.9161C17.2467 11.0951 17.7469 11.3452 18.0783 11.6806C18.4809 12.0903 18.6324 12.6281 18.4372 13.3092Z" fill="white"/>
</g>
<defs>
<clipPath id="clip0_9_566">
<rect width="30.4982" height="30.4982" fill="white"/>
</clipPath>
</defs>
</svg>
