<svg width="8" height="8" viewBox="0 0 8 8" fill="none" xmlns="http://www.w3.org/2000/svg">
<path fill-rule="evenodd" clip-rule="evenodd" d="M4 -3.49691e-07C1.79086 -5.4282e-07 5.4282e-07 1.79086 3.49691e-07 4C1.56562e-07 6.20914 1.79086 8 4 8C6.20914 8 8 6.20914 8 4C8 1.79086 6.20914 -1.56562e-07 4 -3.49691e-07ZM5.54092 3.23984L5.54092 3.23985L5.54088 3.23988L5.54069 3.24008L5.53981 3.24095L5.53614 3.24461L5.52144 3.25923L5.46479 3.31542C5.41574 3.36398 5.34529 3.43351 5.26009 3.517C5.08946 3.68421 4.86072 3.90638 4.62665 4.12788C4.40291 4.33962 4.1799 4.54542 4 4.70118C3.8201 4.54542 3.59709 4.33962 3.37335 4.12788C3.13928 3.90638 2.91054 3.68421 2.73991 3.517C2.65471 3.43351 2.58426 3.36398 2.53521 3.31542L2.47856 3.25923L2.46386 3.24461L2.4602 3.24095L2.45932 3.24008L2.45912 3.23988L2.45908 3.23985L2.45908 3.23984L1.99893 2.78076L1.08076 3.70107L1.54092 4.16015L1.99969 3.70031L1.54096 4.1602L1.54105 4.16028L1.54134 4.16058L1.54242 4.16166L1.5465 4.16572L1.56206 4.1812L1.6206 4.23927C1.67098 4.28914 1.74302 4.36024 1.83002 4.4455C2.00379 4.61579 2.23834 4.84362 2.4798 5.07211C2.71975 5.29919 2.97276 5.53284 3.18164 5.71206C3.28471 5.80049 3.38717 5.88445 3.477 5.9494C3.5208 5.98106 3.57462 6.01775 3.63203 6.04933C3.66073 6.06511 3.70153 6.08587 3.75043 6.10406C3.79134 6.11927 3.88252 6.15 4 6.15C4.11748 6.15 4.20866 6.11927 4.24957 6.10406C4.29847 6.08587 4.33927 6.06511 4.36797 6.04933C4.42538 6.01775 4.4792 5.98106 4.523 5.9494C4.61283 5.88445 4.71529 5.80049 4.81837 5.71206C5.02724 5.53284 5.28025 5.29919 5.5202 5.07211C5.76166 4.84362 5.99621 4.61579 6.16998 4.4455C6.25698 4.36024 6.32902 4.28914 6.3794 4.23927L6.43794 4.1812L6.4535 4.16572L6.45758 4.16166L6.45866 4.16058L6.45895 4.16028L6.45904 4.1602L6 3.7L6.45909 4.16015L6.91924 3.70107L6.00107 2.78076L5.54092 3.23984Z" fill="#FFA3A6"/>
</svg>
