<svg width="35" height="35" viewBox="0 0 35 35" fill="none" xmlns="http://www.w3.org/2000/svg">
<path d="M34.4108 17.2533C34.4108 7.74945 26.7064 0.0450237 17.2025 0.0450241C7.69857 0.0450245 -0.00586054 7.74945 -0.00586013 17.2533C-0.00585971 26.7572 7.69857 34.4617 17.2025 34.4617C26.7064 34.4617 34.4108 26.7572 34.4108 17.2533Z" fill="#3E7DDD"/>
<g clip-path="url(#clip0_8162_23)">
<path d="M23.914 16.5417L17.4998 13.4754V5.05476L17.5311 5L23.914 16.5417Z" fill="#C0CCF7"/>
<path d="M24.0006 16.6987L17.5311 20.7874L17.4998 20.7677V13.4753L23.914 16.5416L24.0006 16.6987Z" fill="#A6B9FF"/>
<path d="M17.5001 5.05469V13.4754L11.0298 16.6485L17.5001 5.05469Z" fill="white"/>
<path d="M23.914 18.1646L17.4998 22.3314V27.9451L17.5311 27.9999L23.914 18.1646Z" fill="#C0CCF7"/>
<path d="M17.5001 27.9453V22.3315L11.0298 18.0579L17.5001 27.9453Z" fill="white"/>
<path d="M17.4997 13.4753V20.7677L11.0005 16.6987L11.0293 16.6485L17.4997 13.4753Z" fill="#C0CCF7"/>
</g>
<defs>
<clipPath id="clip0_8162_23">
<rect width="13" height="23" fill="white" transform="translate(11 5)"/>
</clipPath>
</defs>
</svg>
